<svg xmlns="http://www.w3.org/2000/svg" viewBox="-0.47 -0.47 107.27 15.01"><g id="svgGroup" stroke-linecap="round" fill-rule="evenodd" font-size="9pt" stroke="#1c1917" stroke-width="0.25mm" fill="#1c1917" style="stroke:#1c1917;stroke-width:0.25mm;fill:#1c1917"><path d="M 31.219 13.781 L 19.424 13.781 L 19.424 12.375 L 24.82 12.375 L 24.82 1.705 L 19.784 3.384 L 19.248 2.083 L 24.697 0.281 L 26.508 0.281 L 26.508 12.375 L 31.219 12.375 L 31.219 13.781 Z M 44.279 10.775 L 45.853 10.775 Q 45.853 11.519 45.707 12.054 A 2.529 2.529 0 0 1 45.514 12.56 A 2.031 2.031 0 0 1 44.481 13.509 Q 43.942 13.741 43.172 13.843 A 8.518 8.518 0 0 1 42.71 13.891 A 24.841 24.841 0 0 1 41.845 13.942 Q 41.077 13.975 40.148 13.975 A 28.167 28.167 0 0 1 38.949 13.951 Q 38.361 13.925 37.852 13.874 A 13.481 13.481 0 0 1 37.27 13.803 Q 36.088 13.632 35.363 13.1 A 2.643 2.643 0 0 1 34.628 12.258 A 3.804 3.804 0 0 1 34.308 11.505 A 6.154 6.154 0 0 1 34.12 10.69 Q 33.979 9.831 33.979 8.666 Q 33.979 7.545 34.114 6.714 A 6.044 6.044 0 0 1 34.299 5.906 Q 34.62 4.869 35.341 4.342 A 3.376 3.376 0 0 1 36.116 3.925 Q 36.488 3.78 36.931 3.692 A 6.353 6.353 0 0 1 37.235 3.639 A 14.032 14.032 0 0 1 38.188 3.532 Q 39.044 3.463 40.104 3.463 A 22.877 22.877 0 0 1 41.414 3.498 Q 42.028 3.533 42.554 3.604 A 10.098 10.098 0 0 1 43.321 3.735 Q 44.337 3.953 44.943 4.483 A 2.465 2.465 0 0 1 45.224 4.772 A 2.464 2.464 0 0 1 45.653 5.576 Q 45.853 6.182 45.853 7.014 L 45.853 9.185 L 35.675 9.185 A 14.487 14.487 0 0 0 35.694 9.844 Q 35.73 10.521 35.833 10.986 A 2.159 2.159 0 0 0 35.987 11.447 A 1.496 1.496 0 0 0 36.431 12.006 A 1.771 1.771 0 0 0 36.828 12.23 Q 37.21 12.388 37.762 12.457 A 5.64 5.64 0 0 0 37.771 12.459 A 11.838 11.838 0 0 0 38.386 12.516 Q 39.127 12.568 40.148 12.568 A 58.345 58.345 0 0 0 40.784 12.565 Q 41.69 12.555 42.306 12.516 A 7.162 7.162 0 0 0 42.759 12.473 Q 43.193 12.417 43.476 12.313 A 1.726 1.726 0 0 0 43.554 12.283 Q 43.98 12.103 44.13 11.742 Q 44.235 11.489 44.266 11.114 A 4.094 4.094 0 0 0 44.279 10.775 Z M 104.757 10.775 L 106.33 10.775 Q 106.33 11.519 106.185 12.054 A 2.529 2.529 0 0 1 105.992 12.56 A 2.031 2.031 0 0 1 104.959 13.509 Q 104.42 13.741 103.649 13.843 A 8.518 8.518 0 0 1 103.188 13.891 A 24.841 24.841 0 0 1 102.323 13.942 Q 101.554 13.975 100.626 13.975 A 28.167 28.167 0 0 1 99.426 13.951 Q 98.839 13.925 98.33 13.874 A 13.481 13.481 0 0 1 97.748 13.803 Q 96.565 13.632 95.84 13.1 A 2.643 2.643 0 0 1 95.105 12.258 A 3.804 3.804 0 0 1 94.786 11.505 A 6.154 6.154 0 0 1 94.598 10.69 Q 94.456 9.831 94.456 8.666 Q 94.456 7.545 94.592 6.714 A 6.044 6.044 0 0 1 94.777 5.906 Q 95.098 4.869 95.818 4.342 A 3.376 3.376 0 0 1 96.593 3.925 Q 96.965 3.78 97.409 3.692 A 6.353 6.353 0 0 1 97.712 3.639 A 14.032 14.032 0 0 1 98.666 3.532 Q 99.522 3.463 100.582 3.463 A 22.877 22.877 0 0 1 101.892 3.498 Q 102.505 3.533 103.032 3.604 A 10.098 10.098 0 0 1 103.799 3.735 Q 104.815 3.953 105.42 4.483 A 2.465 2.465 0 0 1 105.702 4.772 A 2.464 2.464 0 0 1 106.131 5.576 Q 106.33 6.182 106.33 7.014 L 106.33 9.185 L 96.152 9.185 A 14.487 14.487 0 0 0 96.172 9.844 Q 96.208 10.521 96.311 10.986 A 2.159 2.159 0 0 0 96.465 11.447 A 1.496 1.496 0 0 0 96.908 12.006 A 1.771 1.771 0 0 0 97.306 12.23 Q 97.687 12.388 98.24 12.457 A 5.64 5.64 0 0 0 98.249 12.459 A 11.838 11.838 0 0 0 98.864 12.516 Q 99.605 12.568 100.626 12.568 A 58.345 58.345 0 0 0 101.262 12.565 Q 102.167 12.555 102.784 12.516 A 7.162 7.162 0 0 0 103.237 12.473 Q 103.67 12.417 103.954 12.313 A 1.726 1.726 0 0 0 104.032 12.283 Q 104.458 12.103 104.607 11.742 Q 104.713 11.489 104.744 11.114 A 4.094 4.094 0 0 0 104.757 10.775 Z M 82.389 13.781 L 80.701 13.781 L 80.701 3.656 L 82.389 3.656 L 82.389 5.001 A 3.305 3.305 0 0 1 83.325 4.148 A 3.109 3.109 0 0 1 83.829 3.903 Q 84.256 3.737 84.819 3.634 Q 85.448 3.519 86.34 3.481 A 22.181 22.181 0 0 1 87.275 3.463 A 16.636 16.636 0 0 1 88.435 3.501 Q 89.62 3.584 90.409 3.85 Q 91.556 4.236 92.039 5.23 Q 92.502 6.181 92.522 7.892 A 13.311 13.311 0 0 1 92.522 8.042 L 92.522 13.781 L 90.826 13.781 L 90.826 8.042 Q 90.826 7.364 90.751 6.859 A 4.052 4.052 0 0 0 90.65 6.372 Q 90.475 5.739 90.048 5.414 A 1.885 1.885 0 0 0 89.614 5.171 Q 89.405 5.085 89.152 5.03 A 3.933 3.933 0 0 0 88.875 4.979 A 8.854 8.854 0 0 0 88.286 4.914 Q 87.714 4.869 86.977 4.869 A 17.296 17.296 0 0 0 85.952 4.897 Q 84.998 4.954 84.341 5.125 A 4.708 4.708 0 0 0 84.217 5.159 A 3.638 3.638 0 0 0 83.629 5.382 Q 83.321 5.533 83.097 5.731 A 1.752 1.752 0 0 0 82.802 6.069 Q 82.44 6.611 82.395 7.439 A 4.452 4.452 0 0 0 82.389 7.682 L 82.389 13.781 Z M 8.438 13.781 L 6.75 13.781 L 6.75 1.688 L 0 1.688 L 0 0.281 L 15.188 0.281 L 15.188 1.688 L 8.438 1.688 L 8.438 13.781 Z M 71.886 14.063 L 68.344 14.063 Q 66.975 14.063 65.942 13.934 A 10.367 10.367 0 0 1 65.092 13.794 A 5.028 5.028 0 0 1 64.214 13.53 Q 63.549 13.256 63.101 12.806 A 3.189 3.189 0 0 1 62.516 11.975 Q 62.332 11.607 62.204 11.157 A 6.312 6.312 0 0 1 62.099 10.731 A 11.147 11.147 0 0 1 61.936 9.704 Q 61.813 8.632 61.813 7.207 L 61.813 6.855 Q 61.813 5.063 61.989 3.845 A 7.888 7.888 0 0 1 62.157 2.996 Q 62.327 2.341 62.596 1.863 A 2.944 2.944 0 0 1 63.769 0.694 Q 64.512 0.29 65.637 0.145 A 15.675 15.675 0 0 1 66.545 0.057 Q 67.051 0.021 67.627 0.008 A 31.127 31.127 0 0 1 68.344 0 L 71.886 0 Q 73.097 0 74.04 0.085 A 14.519 14.519 0 0 1 74.593 0.145 A 7.001 7.001 0 0 1 75.429 0.302 Q 76.014 0.451 76.46 0.694 A 2.944 2.944 0 0 1 77.634 1.863 A 4.22 4.22 0 0 1 77.942 2.559 Q 78.136 3.122 78.24 3.845 A 15.009 15.009 0 0 1 78.347 4.839 Q 78.388 5.371 78.405 5.982 A 32.279 32.279 0 0 1 78.416 6.855 L 78.416 7.207 Q 78.416 8.632 78.293 9.704 A 11.147 11.147 0 0 1 78.13 10.731 Q 77.915 11.752 77.455 12.413 A 2.935 2.935 0 0 1 77.128 12.806 A 3.245 3.245 0 0 1 76.186 13.455 Q 75.782 13.643 75.29 13.76 A 5.892 5.892 0 0 1 75.138 13.794 A 10.743 10.743 0 0 1 74.131 13.953 Q 73.642 14.008 73.08 14.035 A 24.472 24.472 0 0 1 71.886 14.063 Z M 68.344 12.604 L 71.886 12.604 A 29.932 29.932 0 0 0 72.773 12.591 Q 73.466 12.571 74.004 12.516 Q 74.865 12.428 75.406 12.138 A 1.897 1.897 0 0 0 76.2 11.322 A 2.336 2.336 0 0 0 76.232 11.259 Q 76.439 10.831 76.552 10.194 A 7.564 7.564 0 0 0 76.623 9.686 A 15.938 15.938 0 0 0 76.685 8.912 Q 76.707 8.538 76.718 8.112 A 35.746 35.746 0 0 0 76.729 7.207 L 76.729 6.855 Q 76.729 5.309 76.623 4.307 A 7.435 7.435 0 0 0 76.534 3.695 Q 76.479 3.404 76.404 3.162 A 3.039 3.039 0 0 0 76.232 2.725 A 1.918 1.918 0 0 0 75.837 2.177 A 1.742 1.742 0 0 0 75.406 1.876 A 2.852 2.852 0 0 0 74.914 1.691 Q 74.665 1.62 74.372 1.577 A 6.028 6.028 0 0 0 74.004 1.534 Q 73.412 1.482 72.633 1.466 A 36.335 36.335 0 0 0 71.886 1.459 L 68.344 1.459 Q 67.48 1.459 66.803 1.494 A 16.856 16.856 0 0 0 66.226 1.534 A 5.6 5.6 0 0 0 65.648 1.612 Q 65.17 1.705 64.824 1.876 A 1.782 1.782 0 0 0 64.037 2.649 A 2.224 2.224 0 0 0 63.998 2.725 A 3.089 3.089 0 0 0 63.816 3.196 Q 63.74 3.445 63.686 3.743 A 7.566 7.566 0 0 0 63.606 4.307 Q 63.501 5.309 63.501 6.855 L 63.501 7.207 A 34.99 34.99 0 0 0 63.515 8.215 Q 63.539 9.055 63.606 9.686 A 7.256 7.256 0 0 0 63.7 10.316 Q 63.759 10.611 63.839 10.859 A 3.119 3.119 0 0 0 63.998 11.259 A 2.011 2.011 0 0 0 64.426 11.852 A 1.857 1.857 0 0 0 64.824 12.138 Q 65.244 12.363 65.858 12.466 A 5.713 5.713 0 0 0 66.226 12.516 A 14.932 14.932 0 0 0 66.927 12.569 Q 67.243 12.586 67.597 12.595 A 30.886 30.886 0 0 0 68.344 12.604 Z M 49.896 13.781 L 48.208 13.781 L 48.208 3.656 L 49.896 3.656 L 49.896 5.054 A 5.761 5.761 0 0 1 50.142 4.69 Q 50.272 4.515 50.402 4.371 A 3.344 3.344 0 0 1 50.462 4.307 A 1.793 1.793 0 0 1 50.864 3.995 A 2.381 2.381 0 0 1 51.209 3.832 A 3.038 3.038 0 0 1 51.566 3.723 Q 51.943 3.631 52.462 3.582 Q 53.235 3.509 54.488 3.507 A 43.961 43.961 0 0 1 54.545 3.507 L 54.545 4.922 Q 53.111 4.922 52.211 5.005 A 10.163 10.163 0 0 0 51.851 5.045 A 6.163 6.163 0 0 0 51.37 5.125 Q 50.785 5.248 50.484 5.462 A 1.203 1.203 0 0 0 49.986 6.259 A 1.537 1.537 0 0 0 49.983 6.275 A 5.363 5.363 0 0 0 49.932 6.684 Q 49.914 6.883 49.905 7.11 A 12.23 12.23 0 0 0 49.896 7.594 L 49.896 13.781 Z M 35.675 7.857 L 44.235 7.857 L 44.235 7.014 A 4.563 4.563 0 0 0 44.216 6.578 Q 44.182 6.228 44.09 5.963 A 1.174 1.174 0 0 0 43.631 5.372 A 1.534 1.534 0 0 0 43.523 5.304 A 1.929 1.929 0 0 0 43.204 5.161 Q 42.863 5.042 42.37 4.977 A 6.905 6.905 0 0 0 42.28 4.966 Q 41.496 4.874 40.227 4.869 A 36.871 36.871 0 0 0 40.104 4.869 A 32.211 32.211 0 0 0 39.264 4.879 Q 38.426 4.901 37.836 4.97 A 9.251 9.251 0 0 0 37.797 4.975 A 5.092 5.092 0 0 0 37.292 5.06 Q 36.78 5.175 36.466 5.383 A 1.446 1.446 0 0 0 35.921 6.062 A 1.933 1.933 0 0 0 35.846 6.284 A 4.032 4.032 0 0 0 35.753 6.74 Q 35.681 7.217 35.675 7.857 Z M 96.152 7.857 L 104.713 7.857 L 104.713 7.014 A 4.563 4.563 0 0 0 104.693 6.578 Q 104.66 6.228 104.568 5.963 A 1.174 1.174 0 0 0 104.108 5.372 A 1.534 1.534 0 0 0 104.001 5.304 A 1.929 1.929 0 0 0 103.681 5.161 Q 103.34 5.042 102.848 4.977 A 6.905 6.905 0 0 0 102.757 4.966 Q 101.973 4.874 100.705 4.869 A 36.871 36.871 0 0 0 100.582 4.869 A 32.211 32.211 0 0 0 99.741 4.879 Q 98.904 4.901 98.314 4.97 A 9.251 9.251 0 0 0 98.275 4.975 A 5.092 5.092 0 0 0 97.769 5.06 Q 97.258 5.175 96.943 5.383 A 1.446 1.446 0 0 0 96.398 6.062 A 1.933 1.933 0 0 0 96.324 6.284 A 4.032 4.032 0 0 0 96.23 6.74 Q 96.158 7.217 96.152 7.857 Z" vector-effect="non-scaling-stroke"/></g></svg>