<svg xmlns="http://www.w3.org/2000/svg" version="1.0" preserveAspectRatio="xMidYMid meet" viewBox="67 59.16 267 286.84">

<g transform="translate(0.000000,404.000000) scale(0.100000,-0.100000)" fill="#FFFFFF" stroke="none">
<path d="M1841 3443 l-1125 -3 -23 -22 c-22 -21 -23 -26 -23 -204 l0 -183 26 -20 c26 -21 33 -21 790 -21 l764 0 0 -1179 0 -1178 25 -27 24 -26 175 0 c170 0 176 1 203 24 l28 24 -1 1181 -1 1181 298 0 c286 0 300 1 319 20 19 19 20 33 20 203 -1 127 -4 187 -13 198 -26 34 -54 39 -209 37 -84 -2 -659 -4 -1277 -5z"/>
<path d="M713 2540 c-12 -5 -26 -18 -32 -29 -12 -22 -15 -369 -3 -387 20 -30 55 -34 337 -34 l286 0 -3 -731 -3 -731 28 -24 c27 -23 33 -24 190 -24 89 0 172 3 185 6 53 15 52 -12 52 989 l0 926 -25 24 -24 25 -483 -1 c-266 0 -493 -4 -505 -9z"/>
</g>
</svg>